#!OML:ASF F:\VICON\USERDATA\INSTALL\rory3\rory3.ASF
:FULLY-SPECIFIED
:DEGREES
270
root 7.21456 17.6633 3.96895 355.29 61.5587 359.364
lowerback 11.3432 1.04724 -5.45677
upperback 0.480317 0.730136 0.367861
thorax -5.94226 0.522812 3.34783
lowerneck -9.17729 -10.8954 -14.4816
upperneck 33.9951 -16.4802 12.563
head 16.0485 -7.19 5.05066
rclavicle -1.60146e-014 -3.97569e-016
rhumerus -37.0688 -23.2334 -74.5545
rradius 31.0943
rwrist 7.62221
rhand -27.2971 8.41033
rfingers 7.12502
rthumb -0.707043 -21.5682
lclavicle -1.60146e-014 -3.97569e-016
lhumerus -32.615 12.0975 72.088
lradius 28.0133
lwrist -6.63136
lhand -19.9989 28.3733
lfingers 7.12502
lthumb 6.34086 58.2584
rfemur -2.71479 -3.93642 4.87565
rtibia 24.7379
rfoot -6.769 -9.76352
rtoes -17.2505
lfemur 0.188827 -7.01687 -6.8614
ltibia 25.4181
lfoot -5.57369 10.7724
ltoes -20.2355
271
root 7.14975 17.6764 4.08561 354.907 61.0538 358.918
lowerback 11.3904 1.07377 -5.20052
upperback 0.471967 0.797809 0.412234
thorax -5.98105 0.55053 3.23828
lowerneck -9.25382 -10.878 -14.5291
upperneck 34.0512 -16.4423 12.5511
head 16.092 -7.17928 5.06023
rclavicle -5.86415e-015 4.77083e-015
rhumerus -36.8692 -23.0875 -74.7881
rradius 30.9184
rwrist 7.75365
rhand -27.1386 8.46693
rfingers 7.12502
rthumb -0.553916 -21.5121
lclavicle -5.86415e-015 4.77083e-015
lhumerus -32.5265 12.6312 71.8924
lradius 27.8783
lwrist -7.20474
lhand -19.8827 27.7119
lfingers 7.12502
lthumb 6.45301 57.5936
rfemur -2.85956 -4.40675 5.60316
rtibia 24.6664
rfoot -7.20856 -9.36364
rtoes -17.2587
lfemur 0.0852388 -6.92619 -6.17357
ltibia 25.7897
lfoot -4.71261 10.886
ltoes -20.1278
272
root 7.08218 17.6894 4.20054 354.663 60.5308 358.684
lowerback 11.4429 1.10793 -5.10285
upperback 0.530921 0.856143 0.43107
thorax -5.95216 0.575079 3.19311
lowerneck -9.36652 -10.8525 -14.3686
upperneck 34.0298 -16.3919 12.4362
head 16.0614 -7.14911 4.98499
rclavicle -1.78658e-014 1.35174e-014
rhumerus -36.6062 -22.8932 -75.1715
rradius 30.8416
rwrist 7.95374
rhand -27.0152 8.43189
rfingers 7.12502
rthumb -0.434789 -21.5474
lclavicle -1.78658e-014 1.35174e-014
lhumerus -32.4746 12.9657 71.7149
lradius 27.9282
lwrist -7.5906
lhand -19.2992 27.2135
lfingers 7.12502
lthumb 7.01638 57.0772
rfemur -2.94537 -4.83206 6.23655
rtibia 24.5604
rfoot -7.51801 -8.95882
rtoes -17.2427
lfemur 0.0443218 -6.79951 -5.62804
ltibia 26.0938
lfoot -3.72739 11.0759
ltoes -19.7195
273
root 7.01622 17.7074 4.3157 354.503 59.9076 358.507
lowerback 11.4303 1.15006 -5.08889
upperback 0.575322 0.919663 0.492474
thorax -5.9048 0.604766 3.23989
lowerneck -9.45889 -10.8273 -14.323
upperneck 34.0343 -16.3198 12.3176
head 16.049 -7.12585 4.9341
rclavicle -6.28657e-015 5.56597e-015
rhumerus -36.2984 -22.5269 -75.5029
rradius 30.7105
rwrist 8.15408
rhand -26.7305 8.61389
rfingers 7.12502
rthumb -0.159776 -21.3658
lclavicle -6.28657e-015 5.56597e-015
lhumerus -32.4996 13.4877 71.5537
lradius 27.9983
lwrist -8.0265
lhand -18.7888 26.8052
lfingers 7.12502
lthumb 7.50906 56.6519
rfemur -3.04547 -5.0887 6.85506
rtibia 24.3756
rfoot -7.80143 -8.52943
rtoes -17.5117
lfemur 0.0265605 -6.74417 -5.17553
ltibia 26.3732
lfoot -2.51195 11.5217
ltoes -19.7332
274
root 6.95314 17.7302 4.43421 354.05 59.1397 357.961
lowerback 11.3778 1.19697 -4.8691
upperback 0.586923 1.02053 0.615955
thorax -5.87085 0.648806 3.22986
lowerneck -9.52069 -10.751 -14.346
upperneck 34.0436 -16.1712 12.2402
head 16.0304 -7.0759 4.93143
rclavicle -1.12052e-013 -7.95139e-015
rhumerus -35.9929 -21.836 -75.8997
rradius 30.5784
rwrist 8.10941
rhand -26.6476 8.53409
rfingers 7.12502
rthumb -0.0797563 -21.4456
lclavicle -1.12052e-013 -7.95139e-015
lhumerus -32.6775 13.9768 71.4362
lradius 28.1617
lwrist -8.36158
lhand -18.5945 26.3278
lfingers 7.12502
lthumb 7.69654 56.1678
rfemur -3.15465 -4.93062 7.73835
rtibia 24.1382
rfoot -8.06496 -8.29498
rtoes -17.6981
lfemur 0.0429852 -6.73541 -4.51462
ltibia 26.6598
lfoot -1.27591 12.0591
ltoes -19.4735
275
root 6.88565 17.7559 4.54906 353.33 58.4132 357.149
lowerback 11.4499 1.25197 -4.40822
upperback 0.62206 1.15621 0.710182
thorax -5.87887 0.703971 3.0455
lowerneck -9.54394 -10.7051 -14.2594
upperneck 33.9873 -16.12 12.2416
head 15.9861 -7.04595 4.92404
rclavicle 1.54182e-014 9.93923e-015
rhumerus -35.7819 -21.3351 -76.3365
rradius 30.5665
rwrist 8.12059
rhand -26.7316 8.38464
rfingers 7.12502
rthumb -0.160861 -21.595
lclavicle 1.54182e-014 9.93923e-015
lhumerus -32.7985 14.2676 71.3039
lradius 28.3518
lwrist -8.71619
lhand -18.0482 25.0976
lfingers 7.12502
lthumb 8.22384 54.9175
rfemur -3.17743 -4.68606 8.77519
rtibia 23.8559
rfoot -8.16789 -7.99514
rtoes -17.3933
lfemur 0.0539526 -6.80021 -3.68285
ltibia 26.9869
lfoot -0.373225 12.5357
ltoes -17.5777
276
root 6.81646 17.7775 4.65875 352.9 57.7531 356.72
lowerback 11.5695 1.351 -4.07362
upperback 0.689915 1.32755 0.702861
thorax -5.88066 0.778295 2.81871
lowerneck -9.58012 -10.761 -14.1344
upperneck 33.9468 -16.2585 12.3087
head 15.9956 -7.08151 4.89989
rclavicle -1.44019e-013 6.36111e-015
rhumerus -35.5683 -21.0473 -76.726
rradius 30.5033
rwrist 8.15789
rhand -26.6057 8.56479
rfingers 7.12502
rthumb -0.0392994 -21.4149
lclavicle -1.44019e-013 6.36111e-015
lhumerus -32.7633 14.3782 71.2668
lradius 28.5191
lwrist -8.96984
lhand -17.35 23.9438
lfingers 7.12502
lthumb 8.89758 53.7362
rfemur -3.129 -4.52357 9.52698
rtibia 23.5364
rfoot -8.18309 -7.47798
rtoes -16.3355
lfemur 0.0908308 -7.03623 -3.137
ltibia 27.3753
lfoot 0.352839 12.9441
ltoes -15.2408
277
root 6.74364 17.7951 4.77255 352.265 57.0334 356.095
lowerback 11.6812 1.43665 -3.76542
upperback 0.785425 1.48517 0.791754
thorax -5.84903 0.847184 2.71072
lowerneck -9.62299 -10.781 -14.1132
upperneck 33.9205 -16.3353 12.4214
head 16.0205 -7.09894 4.92708
rclavicle -3.90115e-015 -2.38542e-015
rhumerus -35.268 -20.564 -77.1279
rradius 30.4512
rwrist 8.0232
rhand -26.35 8.4517
rfingers 7.12502
rthumb 0.207711 -21.5279
lclavicle -3.90115e-015 -2.38542e-015
lhumerus -32.6662 14.6268 71.3926
lradius 28.6742
lwrist -8.73084
lhand -17.4156 24.4158
lfingers 7.12502
lthumb 8.83434 54.2108
rfemur -3.03285 -4.19795 10.433
rtibia 23.193
rfoot -8.21407 -7.04373
rtoes -14.6455
lfemur 0.0908124 -7.16937 -2.49131
ltibia 27.8624
lfoot 1.44001 13.3435
ltoes -13.7036
278
root 6.66882 17.8151 4.89029 351.434 56.2484 355.266
lowerback 11.8241 1.48244 -3.43958
upperback 0.894263 1.59873 0.990653
thorax -5.81919 0.895747 2.71557
lowerneck -9.7187 -10.7342 -14.2271
upperneck 33.8964 -16.2606 12.4985
head 16.0402 -7.07311 4.99026
rclavicle 9.18758e-014 5.1684e-015
rhumerus -34.9047 -19.8335 -77.5336
rradius 30.3612
rwrist 7.88142
rhand -26.224 8.42992
rfingers 7.12502
rthumb 0.32938 -21.5496
lclavicle 9.18758e-014 5.1684e-015
lhumerus -32.5428 15.2314 71.6203
lradius 28.7671
lwrist -7.95967
lhand -19.2609 27.3585
lfingers 7.12502
lthumb 7.05333 57.221
rfemur -2.89216 -3.70058 11.5428
rtibia 22.8462
rfoot -8.27125 -6.74318
rtoes -13.5058
lfemur 0.0625779 -7.27608 -1.73195
ltibia 28.3976
lfoot 2.90885 14.1609
ltoes -11.2589
279
root 6.59737 17.838 4.99317 350.863 55.4853 354.582
lowerback 11.968 1.51757 -2.98537
upperback 0.889035 1.70846 1.10264
thorax -5.90327 0.94087 2.55534
lowerneck -9.77435 -10.6664 -14.2912
upperneck 33.9456 -16.1726 12.5682
head 16.0778 -7.03546 5.0513
rclavicle 7.5153e-014 5.56597e-015
rhumerus -34.6862 -19.0044 -77.9455
rradius 30.3244
rwrist 7.66649
rhand -26.3499 8.47396
rfingers 7.12502
rthumb 0.207768 -21.5057
lclavicle 7.5153e-014 5.56597e-015
lhumerus -32.5641 15.2384 71.9622
lradius 28.9955
lwrist -6.67331
lhand -21.5538 30.0821
lfingers 7.12502
lthumb 4.83962 60.0068
rfemur -2.86377 -3.45937 12.529
rtibia 22.4626
rfoot -8.19002 -6.28782
rtoes -13.6904
lfemur -0.0889762 -7.58505 -1.12928
ltibia 28.9796
lfoot 4.11994 15.2754
ltoes -7.63069
280
root 6.53231 17.8657 5.084 350.82 54.9295 354.364
lowerback 11.9819 1.53069 -2.6341
upperback 0.851882 1.7709 1.08691
thorax -5.94321 0.962854 2.32871
lowerneck -9.78323 -10.6457 -14.3841
upperneck 34.0005 -16.1781 12.7037
head 16.1391 -7.03447 5.12993
rclavicle -8.89934e-014 5.1684e-015
rhumerus -34.4948 -18.2741 -78.2914
rradius 30.3252
rwrist 7.60482
rhand -26.4261 8.50951
rfingers 7.12502
rthumb 0.134235 -21.4702
lclavicle -8.89934e-014 5.1684e-015
lhumerus -32.5997 14.8297 72.3769
lradius 29.3423
lwrist -5.65025
lhand -21.8572 30.1242
lfingers 7.12502
lthumb 4.54662 60.0554
rfemur -2.91537 -3.56945 13.1302
rtibia 22.0631
rfoot -8.06404 -5.65143
rtoes -13.906
lfemur -0.42059 -8.13337 -0.93665
ltibia 29.5852
lfoot 5.06635 16.4424
ltoes -4.55285
